<?xml version="1.0" encoding="utf-8"?><!-- Uploaded to: SVG Repo, www.svgrepo.com, Generator: SVG Repo Mixer Tools -->
<svg fill="#000000" width="800px" height="800px" viewBox="0 0 24 24" id="work" data-name="Line Color" xmlns="http://www.w3.org/2000/svg" class="icon line-color"><path id="primary" d="M16,4a1,1,0,0,0-1-1H9A1,1,0,0,0,8,4V7h8Zm5,16V8a1,1,0,0,0-1-1H4A1,1,0,0,0,3,8V20a1,1,0,0,0,1,1H20A1,1,0,0,0,21,20Z" style="fill: none; stroke: #d5bdaf; stroke-linecap: round; stroke-linejoin: round; stroke-width: 2;"></path><path id="secondary" d="M11,14H8.64A4,4,0,0,1,5,11.58L3.18,7.43A1,1,0,0,1,4,7H20a1,1,0,0,1,.82.43L19,11.58A4,4,0,0,1,15.36,14H13" style="fill: none; stroke: #c9ada7; stroke-linecap: round; stroke-linejoin: round; stroke-width: 2;"></path><rect id="primary-2" data-name="primary" x="11" y="13" width="2" height="2" style="fill: none; stroke: #d5bdaf; stroke-linecap: round; stroke-linejoin: round; stroke-width: 2;"></rect></svg>